<svg xmlns="http://www.w3.org/2000/svg" width="256" height="256" viewBox="0 0 100 100"><rect width="100" height="100" rx="20" fill="#4057a5"></rect><path d="M73.22 51.53L73.22 71.06Q73.22 72.68 72.28 73.76Q71.33 74.84 69.44 75.83L69.44 75.83Q67.19 76.91 63.23 77.72Q59.27 78.53 55.22 78.53L55.22 78.53Q48.92 78.53 43.70 76.82Q38.48 75.11 34.70 71.60Q30.92 68.09 28.85 62.73Q26.78 57.38 26.78 50.09L26.78 50.09Q26.78 42.89 28.94 37.49Q31.10 32.09 34.84 28.54Q38.57 24.98 43.52 23.23Q48.47 21.47 54.05 21.47L54.05 21.47Q57.83 21.47 61.02 22.10Q64.22 22.73 66.47 23.77Q68.72 24.80 69.98 26.06Q71.24 27.32 71.24 28.58L71.24 28.58Q71.24 29.84 70.52 30.74Q69.80 31.64 68.81 32.09L68.81 32.09Q66.38 30.47 63.05 29.08Q59.72 27.68 54.50 27.68L54.50 27.68Q50.18 27.68 46.49 29.12Q42.80 30.56 40.10 33.35Q37.40 36.14 35.87 40.37Q34.34 44.60 34.34 50.09L34.34 50.09Q34.34 55.94 35.91 60.13Q37.49 64.31 40.33 67.01Q43.16 69.71 46.98 71.02Q50.81 72.32 55.31 72.32L55.31 72.32Q58.55 72.32 61.43 71.78Q64.31 71.24 65.93 70.43L65.93 70.43L65.93 53.87L52.34 53.87Q52.07 53.42 51.80 52.66Q51.53 51.89 51.53 50.99L51.53 50.99Q51.53 49.46 52.25 48.61Q52.97 47.75 54.32 47.75L54.32 47.75L69.35 47.75Q70.97 47.75 72.09 48.78Q73.22 49.82 73.22 51.53L73.22 51.53Z" fill="#fff"></path></svg>